<?xml version="1.0"?>
<svg xmlns:rdf="http://www.w3.org/1999/02/22-rdf-syntax-ns#" xmlns="http://www.w3.org/2000/svg" xmlns:cc="http://creativecommons.org/ns#" xmlns:dc="http://purl.org/dc/elements/1.1/" xmlns:svg="http://www.w3.org/2000/svg" id="svg4003" viewBox="0 0 741.98 190.79" version="1.1">
  <title id="title4065">123</title>
  <g id="layer1" stroke-linejoin="round" stroke="#000" stroke-linecap="round" transform="translate(-174.02 -616.9)">
    <g id="g3042" transform="translate(0 -1.8363)">
      <path id="path3894" stroke-width="2" fill="#fff" d="m267.92 750.68c-4.297 6.4618-13.318 26.901-24.859 24.258l0.52243 31.287-50.021 0.45689 0.1601-30.762c-11.862-2.8788-20.524-55.675-11.845-66.95 6.3915-6.4967 46.668-2.5934 49.378-20.227 2.3557-13.326 0.37321 11.848 1.8237 2.9673 1.134-7.1802 15.529-12.884 16.37 2.1156 1.7685 7.2188-4.3743 10.653-2.9944 30.993 0.38261 5.64 10.737 3.0735 11.596 3.3518l25.18-17.896c17.046-11.041 24.199 7.6665 9.8698 18.676z"/>
      <path id="path2999" stroke-width="1.9789" fill="#fff" d="m232.4 685.07c0.68236-7.9048 20.749-9.2117 20.968 4.7529-3.5542 14.543-5.3227 29.087-8.8769 43.63-2.3371 7.1835-14.644 7.9883-15.465-0.84841 1.3715-15.914 1.6338-31.658 3.3738-47.534z"/>
      <path id="path3896" fill="none" d="m221.33 773.27c-2.7874-19.896-0.87231-25.376 12.455-33.966"/>
      <path id="path3898" stroke-width="2" fill="#fff" d="m232.37 684.16c1.8802-8.4355-15.811-16.425-21.983 0.29691l-1.0152 49.607c0.66072 7.3247 18.603 9.159 18.986-2.0831 2.7542-16.239 4.0363-33.007 4.0124-47.82z"/>
      <path id="path3902" stroke-width="2" fill="#fff" d="m194.13 701.23c-2.6002-12.045-23.635-13.058-18.216 7.1155 3.2863 10.551 6.4857 21.698 12.115 30.151 3.315 5.4808 13.658 2.2304 13.71-2.8971l-4.2599-13.567z"/>
      <path id="path3904" stroke-width="2" fill="#fff" d="m209.98 688.04c-0.59249-7.9133-19.525-9.3442-19.934 4.6162l5.2865 22.434 5.0276 21.336c2.2922 7.2144 13.027 8.1612 13.983-0.66368l-1.9054-22.789z"/>
    </g>
    <g id="g3050" transform="translate(7.7998 -.83982)">
      <path id="path3003" stroke-width="2" fill="#fff" d="m409.97 749.68c-4.2969 6.4618-13.318 26.901-24.858 24.258l0.5224 31.287-50.021 0.45689 0.1601-30.762c-11.862-2.8788-20.524-55.675-11.845-66.95 4.2752-4.3455 31.522 5.266 29.948-8.6352-2.6541-20.896 3.8003 4.9104 3.733-4.4945-2.6467-21.235 10.031-21.2 10.5-6.9704 3.8229 14.667-2.1474 9.4251 4.266 9.4805 5.6686 5.1166 9.5846-50.424 12.779-58.054 3.3084-17.293 18.623-15.964 17.173 2.1664 1.2703 7.2188-8.7748 59.159-7.395 79.498 0.3826 5.64 4.3084 5.9306 5.1675 6.2089l25.18-17.896c17.046-11.041 24.199 7.6665 9.8698 18.676z"/>
      <path id="path3005" fill="none" d="m363.38 772.28c-2.7874-19.896 0.70611-33.365 14.033-41.955"/>
      <path id="path3007" stroke-width="2" fill="#fff" d="m336.18 700.24c-2.6002-12.045-23.635-13.058-18.216 7.1155 3.2863 10.551 4.9705 23.213 10.599 31.666 3.315 5.4808 15.173 0.71518 15.226-4.4123l-4.2599-13.567z"/>
      <path id="path3009" stroke-width="2" fill="#fff" d="m375.73 684.16c1.8802-8.4355-15.811-16.425-21.983 0.29691l-1.0152 49.607c0.66072 7.3247 18.603 9.159 18.986-2.0831 2.7542-16.239 4.0363-33.007 4.0124-47.82z"/>
      <path id="path3011" stroke-width="2" fill="#fff" d="m352.53 683.22c-1.0204-7.5825-20.792-9.1681-20.432 4.9812l5.2865 24.209 4.0175 21.003c-0.73205 11.908 17.089 12.668 15.499-1.7263l-1.4003-20.045z"/>
    </g>
    <g id="g3057" transform="translate(9.5483)">
      <path id="path3938-8" stroke-width="2" fill="#fff" d="m558.07 748.84c-4.2969 6.4618-13.318 26.901-24.858 24.258l0.5224 31.287-50.021 0.45689 0.1601-30.762c-11.862-2.8788-20.524-55.675-11.845-66.95 4.2752-4.3455 31.522 5.266 29.948-8.6352-2.6541-20.896-4.2809-54.689-4.3482-64.093-2.6467-21.235 16.816-20.486 17.286-6.2562 3.8229 14.667 0.57671 68.667 6.9901 68.722 5.6686 5.1166 8.156-50.782 11.351-58.411 3.3084-17.293 18.623-15.964 17.173 2.1664 1.2703 7.2188-8.7748 59.159-7.395 79.498 0.38259 5.64 4.3084 5.9306 5.1675 6.2089l25.18-17.896c17.046-11.041 24.199 7.6665 9.8698 18.676z"/>
      <path id="path3940-6" fill="none" d="m511.48 771.44c-2.7874-19.896 0.70612-33.365 14.033-41.955"/>
      <path id="path3944-1" stroke-width="2" fill="#fff" d="m484.28 699.4c-2.6002-12.045-23.635-13.058-18.216 7.1155 3.2863 10.551 4.9705 23.213 10.599 31.666 3.315 5.4808 15.173 0.71518 15.226-4.4123l-4.2599-13.567z"/>
      <path id="path3946-5" stroke-width="2" fill="#fff" d="m500.63 682.38c-1.0204-7.5825-20.792-9.1681-20.432 4.9812l5.2865 24.209 4.0175 21.003c-0.73206 11.908 17.089 12.668 15.499-1.7263l-1.4003-20.045z"/>
    </g>
    <g id="g3063" transform="translate(-1.9773 .00399)">
      <path id="path3026" stroke-width="2" fill="#fff" d="m669.34 617.9c-4.9112 0.14702-9.7498 5.2189-8.3438 16.5 0.0673 9.4048 1.7209 37.198 4.375 58.094 0.73445 6.193-3.594 8.2435-5.9375 2.7679l-3.5089-31.804-2.9286-21.714c0.73206-11.908-17.09-12.675-15.5 1.7188l1.4062 20.062 6.5312 42.531c-4.6119-0.26532-8.6061-0.38607-10.031 1.0625-8.6791 11.275-0.0179 64.09 11.844 66.969l-0.15625 30.75 50.031-0.4375-0.53125-31.312c11.54 2.6436 20.578-17.788 24.875-24.25l25.156-21.719c14.329-11.009 7.1705-29.729-9.875-18.688l-25.156 17.906c-0.8591-0.27831-4.8049-0.5788-5.1875-6.2188-1.3798-20.34 8.6766-72.281 7.4062-79.5 1.4495-18.131-13.879-19.449-17.188-2.1562-3.1948 7.6292-5.6751 63.523-11.344 58.406-6.4134-0.0554-3.1458-54.052-6.9688-68.719-0.22017-6.6701-4.6354-10.38-8.9688-10.25z"/>
      <path id="path3028" fill="none" d="m674.85 771.44c-2.7874-19.896 0.70612-33.365 14.033-41.955"/>
      <path id="path3030" stroke-width="2" fill="#fff" d="m645.66 701.4c-2.6002-12.045-23.635-13.058-18.216 7.1155 3.2863 10.551 4.9705 23.213 10.599 31.666 3.315 5.4808 15.173 0.71518 15.226-4.4123l-4.2599-13.567z"/>
    </g>
    <g id="g3068" transform="translate(.000030444 .00399)">
      <path id="path3035" stroke-width="2" transform="translate(200.76 612.69)" fill="#fff" d="m629.28 5.2188c-4.9112 0.14702-7.7498 5.2189-6.3438 16.5 0.0673 9.4048 1.7209 43.198 4.375 64.094 0.0477 5.3457-4.9012 7.7349-7.9375 2.7812l-3.5-37.812-2.9375-23.719c0.73206-11.908-17.09-12.675-15.5 1.7188l1.4062 22.062 6.3312 37.226c1.987 8.6801-1.6208 5.6945-2.5479 1.0443-1.8673-9.9385-13.534-38.294-16.513-42.767-3.315-5.4808-10.408-0.72123-10.461 4.4062 2.4753 14.258 17.409 42.431 17.128 50.121-3.7745 17.922 4.11 58.032 14.406 60.531l-0.15625 30.75 50.031-0.4375-0.53125-31.312c11.54 2.6436 20.578-17.788 24.875-24.25l25.16-21.71c14.329-11.009 7.1705-29.729-9.875-18.688l-25.156 17.906c-0.8591-0.27831-6.8049-0.5788-7.1875-6.2188-1.3798-20.34 10.677-68.281 9.4062-75.5 1.4495-18.131-11.879-19.449-15.188-2.1562-3.1948 7.6292-7.6751 59.523-13.344 54.406-6.4134-0.0554-3.1458-54.052-6.9688-68.719-0.22017-6.6701-4.6354-10.38-8.9688-10.25z"/>
      <path id="path3037" fill="none" d="m835.57 771.44c-2.7874-19.896 0.70612-33.365 14.033-41.955"/>
    </g>
  </g>
  <metadata>
    <rdf:RDF>
      <cc:Work>
        <dc:format>image/svg+xml</dc:format>
        <dc:type rdf:resource="http://purl.org/dc/dcmitype/StillImage"/>
        <cc:license rdf:resource="http://creativecommons.org/licenses/publicdomain/"/>
        <dc:publisher>
          <cc:Agent rdf:about="http://openclipart.org/">
            <dc:title>Openclipart</dc:title>
          </cc:Agent>
        </dc:publisher>
        <dc:title>Count on fingers</dc:title>
        <dc:date>2013-04-17T11:07:19</dc:date>
        <dc:description>modified order of fingers in the version from lmproulx hands. Added 4 and 5.</dc:description>
        <dc:source>http://openclipart.org/detail/177253/count-on-fingers-by-dkdlv-177253</dc:source>
        <dc:creator>
          <cc:Agent>
            <dc:title>dkdlv</dc:title>
          </cc:Agent>
        </dc:creator>
        <dc:subject>
          <rdf:Bag>
            <rdf:li>apprendre</rdf:li>
            <rdf:li>aprender</rdf:li>
            <rdf:li>compter</rdf:li>
            <rdf:li>contar</rdf:li>
            <rdf:li>dedo</rdf:li>
            <rdf:li>dedos</rdf:li>
            <rdf:li>doigt</rdf:li>
            <rdf:li>doigts</rdf:li>
            <rdf:li>ecole</rdf:li>
            <rdf:li>enfant</rdf:li>
            <rdf:li>escuela</rdf:li>
            <rdf:li>learn</rdf:li>
            <rdf:li>learning</rdf:li>
            <rdf:li>math</rdf:li>
            <rdf:li>maths</rdf:li>
            <rdf:li>school</rdf:li>
            <rdf:li>&#xC3;&#xA9;cole</rdf:li>
          </rdf:Bag>
        </dc:subject>
      </cc:Work>
      <cc:License rdf:about="http://creativecommons.org/licenses/publicdomain/">
        <cc:permits rdf:resource="http://creativecommons.org/ns#Reproduction"/>
        <cc:permits rdf:resource="http://creativecommons.org/ns#Distribution"/>
        <cc:permits rdf:resource="http://creativecommons.org/ns#DerivativeWorks"/>
      </cc:License>
    </rdf:RDF>
  </metadata>
</svg>
